HIERARCHY
ROOT hip
{
  OFFSET 0 0 0
  CHANNELS 6 Xposition Yposition Zposition Zrotation Yrotation Xrotation
  JOINT abdomen
  {
    OFFSET 0 20.6881 -0.73152
    CHANNELS 3 Zrotation Xrotation Yrotation
    JOINT chest
    {
      OFFSET 0 11.7043 -0.48768
      CHANNELS 3 Zrotation Xrotation Yrotation
      JOINT neck
      {
        OFFSET 0 22.1894 -2.19456
        CHANNELS 3 Zrotation Xrotation Yrotation
        JOINT head
        {
          OFFSET -0.24384 7.07133 1.2192
          CHANNELS 3 Zrotation Xrotation Yrotation
          JOINT leftEye
          {
            OFFSET 4.14528 8.04674 8.04672
            CHANNELS 3 Zrotation Xrotation Yrotation
            End Site
            {
              OFFSET 1 0 0
            }
          }
          JOINT rightEye
          {
            OFFSET -3.6576 8.04674 8.04672
            CHANNELS 3 Zrotation Xrotation Yrotation
            End Site
            {
              OFFSET 1 0 0
            }
          }
        }
      }
      JOINT rCollar
      {
        OFFSET -2.68224 19.2634 -4.8768
        CHANNELS 3 Zrotation Xrotation Yrotation
        JOINT rShldr
        {
          OFFSET -8.77824 -1.95073 1.46304
          CHANNELS 3 Zrotation Xrotation Yrotation
          JOINT rForeArm
          {
            OFFSET -28.1742 -1.7115 0.48768
            CHANNELS 3 Zrotation Xrotation Yrotation
            JOINT rHand
            {
              OFFSET -22.5879 0.773209 7.07136
              CHANNELS 3 Zrotation Xrotation Yrotation
              JOINT rThumb1
              {
                OFFSET -1.2192 -0.487915 3.41376
                CHANNELS 3 Zrotation Xrotation Yrotation
                JOINT rThumb2
                {
                  OFFSET -3.37035 -0.52449 3.41376
                  CHANNELS 3 Zrotation Xrotation Yrotation
                  End Site
                  {
                    OFFSET -1.78271 -1.18214 1.43049
                  }
                }
              }
              JOINT rIndex1
              {
                OFFSET -7.75947 0.938293 5.60832
                CHANNELS 3 Zrotation Xrotation Yrotation
                JOINT rIndex2
                {
                  OFFSET -2.54057 -0.884171 1.56538
                  CHANNELS 3 Zrotation Xrotation Yrotation
                  End Site
                  {
                    OFFSET -1.62519 -0.234802 1.16502
                  }
                }
              }
              JOINT rMid1
              {
                OFFSET -8.24714 1.18213 3.41376
                CHANNELS 3 Zrotation Xrotation Yrotation
                JOINT rMid2
                {
                  OFFSET -3.10165 -0.590103 1.0647
                  CHANNELS 3 Zrotation Xrotation Yrotation
                  End Site
                  {
                    OFFSET -2.48547 -0.328903 0.83742
                  }
                }
              }
              JOINT rRing1
              {
                OFFSET -8.82822 0.546677 1.51678
                CHANNELS 3 Zrotation Xrotation Yrotation
                JOINT rRing2
                {
                  OFFSET -2.60934 -0.819778 -0.0198488
                  CHANNELS 3 Zrotation Xrotation Yrotation
                  End Site
                  {
                    OFFSET -2.33842 -0.294052 0.168128
                  }
                }
              }
              JOINT rPinky1
              {
                OFFSET -8.27202 -0.0477905 -0.4584
                CHANNELS 3 Zrotation Xrotation Yrotation
                JOINT rPinky2
                {
                  OFFSET -1.82734 -0.647385 -0.700984
                  CHANNELS 3 Zrotation Xrotation Yrotation
                  End Site
                  {
                    OFFSET -1.69225 -0.51767 -0.607171
                  }
                }
              }
            }
          }
        }
      }
      JOINT lCollar
      {
        OFFSET 2.68224 19.2634 -4.8768
        CHANNELS 3 Zrotation Xrotation Yrotation
        JOINT lShldr
        {
          OFFSET 8.77824 -1.95073 1.46304
          CHANNELS 3 Zrotation Xrotation Yrotation
          JOINT lForeArm
          {
            OFFSET 28.1742 -1.7115 0.48768
            CHANNELS 3 Zrotation Xrotation Yrotation
            JOINT lHand
            {
              OFFSET 22.5879 0.773209 7.07136
              CHANNELS 3 Zrotation Xrotation Yrotation
              JOINT lThumb1
              {
                OFFSET 1.2192 -0.487915 3.41376
                CHANNELS 3 Zrotation Xrotation Yrotation
                JOINT lThumb2
                {
                  OFFSET 3.37035 -0.52449 3.41376
                  CHANNELS 3 Zrotation Xrotation Yrotation
                  End Site
                  {
                    OFFSET 1.78271 -1.18214 1.43049
                  }
                }
              }
              JOINT lIndex1
              {
                OFFSET 7.75947 0.938293 5.60832
                CHANNELS 3 Zrotation Xrotation Yrotation
                JOINT lIndex2
                {
                  OFFSET 2.54057 -0.884171 1.56538
                  CHANNELS 3 Zrotation Xrotation Yrotation
                  End Site
                  {
                    OFFSET 1.62519 -0.234802 1.16502
                  }
                }
              }
              JOINT lMid1
              {
                OFFSET 8.24714 1.18213 3.41376
                CHANNELS 3 Zrotation Xrotation Yrotation
                JOINT lMid2
                {
                  OFFSET 3.10165 -0.590103 1.0647
                  CHANNELS 3 Zrotation Xrotation Yrotation
                  End Site
                  {
                    OFFSET 2.48547 -0.328903 0.83742
                  }
                }
              }
              JOINT lRing1
              {
                OFFSET 8.82822 0.546677 1.51678
                CHANNELS 3 Zrotation Xrotation Yrotation
                JOINT lRing2
                {
                  OFFSET 2.60934 -0.819778 -0.0198488
                  CHANNELS 3 Zrotation Xrotation Yrotation
                  End Site
                  {
                    OFFSET 2.33842 -0.294052 0.168128
                  }
                }
              }
              JOINT lPinky1
              {
                OFFSET 8.27202 -0.0477905 -0.4584
                CHANNELS 3 Zrotation Xrotation Yrotation
                JOINT lPinky2
                {
                  OFFSET 1.82734 -0.647385 -0.700984
                  CHANNELS 3 Zrotation Xrotation Yrotation
                  End Site
                  {
                    OFFSET 1.69225 -0.51767 -0.607171
                  }
                }
              }
            }
          }
        }
      }
    }
  }
  JOINT rButtock
  {
    OFFSET -8.77824 4.35084 1.2192
    CHANNELS 3 Zrotation Xrotation Yrotation
    JOINT rThigh
    {
      OFFSET 0 -1.70687 -2.19456
      CHANNELS 3 Zrotation Xrotation Yrotation
      JOINT rShin
      {
        OFFSET 0 -36.8199 0.73152
        CHANNELS 3 Zrotation Xrotation Yrotation
        JOINT rFoot
        {
          OFFSET 0.73152 -45.1104 -5.12064
          CHANNELS 3 Zrotation Xrotation Yrotation
          End Site
          {
            OFFSET -1.1221 -3.69964 12.103
          }
        }
      }
    }
  }
  JOINT lButtock
  {
    OFFSET 8.77824 4.35084 1.2192
    CHANNELS 3 Zrotation Xrotation Yrotation
    JOINT lThigh
    {
      OFFSET 0 -1.70687 -2.19456
      CHANNELS 3 Zrotation Xrotation Yrotation
      JOINT lShin
      {
        OFFSET 0 -36.8199 0.73152
        CHANNELS 3 Zrotation Xrotation Yrotation
        JOINT lFoot
        {
          OFFSET -0.73152 -45.1104 -5.12064
          CHANNELS 3 Zrotation Xrotation Yrotation
          End Site
          {
            OFFSET 1.1221 -3.69964 12.103
          }
        }
      }
    }
  }
}
MOTION
Frames:	4
Frame Time:	0.00833333
70.104 85.3827 20.5359 -8.0505 -3.2952 3.2949 8.75337 2.87986 10.5786 -1.08474 1.32693 3.09849 -11.0739 1.84968 -4.62889 11.0375 -6.738 -5.73187 -0.0 0.0 0.0 -0.0 0.0 0.0 1.4816e-13 7.7674e-14 -7.10624e-14 78.0764 66.1179 -18.9547 -23.5373 -18.2571 48.1773 -0.586717 -21.2293 -3.12964 1.36446e-10 -1.28828e-09 8.79015e-10 2.1793e-10 -2.21744e-09 1.52032e-09 1.36447e-10 -1.28827e-09 8.79013e-10 7.73091 5.47488 0.417314 1.3645e-10 -1.28828e-09 8.79023e-10 2.90554 0.965183 0.102902 1.36455e-10 -1.28827e-09 8.79019e-10 10.2786 0.731801 0.0259123 1.36445e-10 -1.28827e-09 8.79027e-10 2.22167 -0.733487 -0.20892 1.48096e-13 7.76764e-14 -7.12662e-14 -80.9863 5.52709 12.5652 12.4688 -5.78339 -22.5201 0.241324 13.8462 -1.98521 -5.35469e-10 1.40358e-09 -1.50258e-11 -9.2386e-10 2.42857e-09 -2.05931e-11 -5.3547e-10 1.40359e-09 -1.50184e-11 -7.73091 5.47488 -0.417314 -5.35465e-10 1.40359e-09 -1.50328e-11 -2.90554 0.965183 -0.102902 -5.35469e-10 1.40359e-09 -1.50276e-11 -10.2786 0.731801 -0.0259123 -5.35463e-10 1.40359e-09 -1.50384e-11 -2.22167 -0.733487 0.20892 -2.03217e-16 0.0 -3.88251e-19 12.4776 11.4047 1.96165 0.0637597 5.82862 0.594593 -0.965488 -11.3738 -2.15937 2.03217e-16 0.0 3.88251e-19 13.0041 -39.3079 1.8048 0.105649 23.9423 -0.686163 1.43107 -11.0635 3.25494
70.244 85.2957 21.4811 -7.4244 -3.8254 3.3376 8.46041 2.8195 10.7361 -1.09046 1.32352 3.13969 -11.1565 1.73344 -4.62482 11.1737 -6.73769 -5.67521 -0.0 0.0 0.0 -0.0 0.0 0.0 1.66025e-13 8.42835e-14 -7.94145e-14 77.9179 66.2105 -18.6759 -23.52 -18.2265 48.1251 -0.584227 -21.1878 -3.12289 1.37918e-10 -1.44334e-09 9.92527e-10 2.18183e-10 -2.48427e-09 1.71657e-09 1.3792e-10 -1.44333e-09 9.92524e-10 7.73091 5.47488 0.417314 1.37923e-10 -1.44334e-09 9.92537e-10 2.90554 0.965183 0.102902 1.37926e-10 -1.44333e-09 9.92531e-10 10.2786 0.731801 0.0259123 1.37918e-10 -1.44333e-09 9.9254e-10 2.22167 -0.733487 -0.20892 1.65956e-13 8.42859e-14 -7.96133e-14 -80.7877 4.96685 12.5 12.2458 -5.62247 -22.0866 0.254195 14.2088 -2.03931 -7.09772e-10 1.59425e-09 3.06287e-12 -1.2247e-09 2.75818e-09 1.3666e-11 -7.09773e-10 1.59425e-09 3.06924e-12 -7.73091 5.47488 -0.417314 -7.09768e-10 1.59425e-09 3.05651e-12 -2.90554 0.965183 -0.102902 -7.09774e-10 1.59425e-09 3.06128e-12 -10.2786 0.731801 -0.0259123 -7.09768e-10 1.59426e-09 3.05015e-12 -2.22167 -0.733487 0.20892 -2.03217e-16 0.0 -3.88251e-19 12.2021 11.8795 2.25548 0.0645036 5.79281 0.600305 -1.01193 -11.3518 -2.3837 2.03217e-16 0.0 3.88251e-19 12.9744 -39.533 2.2977 0.10451 23.8265 -0.686242 1.30032 -11.1787 2.78016
70.255 85.1723 22.428 -7.4868 -4.2836 3.5121 8.47561 2.802 10.7787 -1.15459 1.27953 3.1523 -11.2164 1.68391 -4.60278 11.335 -6.82516 -5.59066 -0.0 0.0 0.0 -0.0 0.0 0.0 2.39805e-13 8.6595e-14 -4.53672e-14 77.8429 66.2061 -18.4836 -23.5031 -18.1967 48.0739 -0.575405 -21.0384 -3.09868 -4.15142e-11 -1.21575e-09 9.22248e-10 -9.02227e-11 -2.08737e-09 1.59082e-09 -4.1512e-11 -1.21575e-09 9.22242e-10 7.73091 5.47488 0.417314 -4.15095e-11 -1.21576e-09 9.22257e-10 2.90554 0.965183 0.102902 -4.15079e-11 -1.21575e-09 9.22252e-10 10.2786 0.731801 0.0259123 -4.15151e-11 -1.21575e-09 9.22261e-10 2.22167 -0.733487 -0.20892 2.39698e-13 8.65959e-14 -4.56005e-14 -80.5761 4.39582 12.4577 12.0378 -5.47473 -21.684 0.270121 14.6411 -2.10407 -1.68388e-09 1.41551e-09 -8.31241e-11 -2.9085e-09 2.44649e-09 -1.21438e-10 -1.68388e-09 1.41551e-09 -8.31167e-11 -7.73091 5.47488 -0.417314 -1.68388e-09 1.41551e-09 -8.31284e-11 -2.90554 0.965183 -0.102902 -1.68389e-09 1.41551e-09 -8.31242e-11 -10.2786 0.731801 -0.0259123 -1.68388e-09 1.41551e-09 -8.3134e-11 -2.22167 -0.733487 0.20892 -2.03217e-16 0.0 -3.88251e-19 12.1716 12.3288 2.42009 0.0648716 5.76669 0.603176 -1.01931 -11.2645 -2.42818 2.03217e-16 0.0 3.88251e-19 13.0856 -39.6182 2.67806 0.105191 23.9222 -0.686402 1.20435 -10.8297 2.49079
70.3281 85.0336 23.4184 -7.8719 -3.8096 3.6021 8.68304 2.81768 10.7422 -1.25328 1.2143 3.14541 -11.2588 1.66896 -4.56891 11.5108 -6.97003 -5.48686 -0.0 0.0 0.0 -0.0 0.0 0.0 3.47953e-13 8.5776e-14 1.635e-14 77.8014 66.1418 -18.3245 -23.4863 -18.1672 48.0232 -0.562651 -20.8181 -3.06313 -3.31228e-10 -7.33869e-10 7.23689e-10 -5.86497e-10 -1.24965e-09 1.24068e-09 -3.31224e-10 -7.33869e-10 7.2368e-10 7.73091 5.47488 0.417314 -3.31224e-10 -7.33875e-10 7.23695e-10 2.90554 0.965183 0.102902 -3.31223e-10 -7.33869e-10 7.23693e-10 10.2786 0.731801 0.0259123 -3.31229e-10 -7.33868e-10 7.23703e-10 2.22167 -0.733487 -0.20892 3.47788e-13 8.57746e-14 1.6055e-14 -80.3574 3.841 12.4178 11.8439 -5.33972 -21.3085 0.288113 15.1097 -2.17459 -3.17679e-09 9.90016e-10 -2.17357e-10 -5.48918e-09 1.7065e-09 -3.32383e-10 -3.17679e-09 9.90018e-10 -2.17348e-10 -7.73091 5.47488 -0.417314 -3.17679e-09 9.90019e-10 -2.17358e-10 -2.90554 0.965183 -0.102902 -3.1768e-09 9.90019e-10 -2.17355e-10 -10.2786 0.731801 -0.0259123 -3.17679e-09 9.90022e-10 -2.17362e-10 -2.22167 -0.733487 0.20892 -2.03217e-16 0.0 -3.88251e-19 12.2976 12.7581 2.49714 0.0650824 5.76122 0.605084 -1.00451 -11.1236 -2.37215 2.03217e-16 0.0 3.88251e-19 13.3025 -39.6083 3.06757 0.107909 24.2517 -0.687716 1.12378 -10.118 2.28782
